<?xml version="1.0" standalone="no"?><!DOCTYPE svg PUBLIC "-//W3C//DTD SVG 1.1//EN" "http://www.w3.org/Graphics/SVG/1.1/DTD/svg11.dtd"><svg t="1723887627625" class="icon" viewBox="0 0 1170 1024" version="1.1" xmlns="http://www.w3.org/2000/svg" p-id="1722" xmlns:xlink="http://www.w3.org/1999/xlink" width="228.515625" height="200"><path d="M12.190476 0h1024v1024H12.190476z" fill="#2c2c2c" fill-opacity="0" p-id="1723"></path><path d="M946.590476 862.421333c-0.896-10.197333-1.194667-20.437333-1.834666-30.634666-0.298667-4.693333-0.426667-9.514667-0.981334-14.208-1.024-8.533333-2.432-17.237333-3.456-25.941334-1.024-8.704-1.834667-18.56-2.730666-27.818666-1.194667-12.8-2.304-26.026667-3.584-39.04-0.384-6.4-1.194667-12.8-2.389334-19.2a69.418667 69.418667 0 0 0-19.84-32.341334 132.778667 132.778667 0 0 0-38.4-26.453333c-18.517333-8.533333-37.632-16.213333-56.746666-23.765333-25.130667-9.898667-50.474667-19.2-75.733334-28.928-12.074667-4.608-24.021333-9.6-36.181333-14.037334a12.8 12.8 0 0 0-17.066667 8.106667c-1.109333 4.778667-2.218667 9.642667-3.541333 14.506667a154417.194667 154417.194667 0 0 1-48.298667 177.749333c-6.613333 24.234667-13.056 48.426667-19.712 72.533333-5.248 19.029333-10.666667 38.101333-16 57.173334-2.048 7.338667-4.266667 14.72-6.442666 23.381333-1.92-2.816-3.882667-4.522667-4.266667-6.485333-1.024-5.034667-1.408-10.24-1.962667-15.36-0.682667-6.272-1.194667-12.544-1.834666-18.858667l-3.541334-33.792c-0.938667-8.533333-1.706667-17.408-2.816-26.026667-1.152-8.704-3.029333-18.346667-4.266666-27.52a1319.808 1319.808 0 0 1-4.522667-36.693333c-1.621333-14.677333-2.816-29.44-4.522667-44.074667a587.648 587.648 0 0 0-4.778666-33.536 77.866667 77.866667 0 0 1 1.28-34.944c3.114667-11.093333 6.485333-22.144 9.642666-33.28 1.365333-4.864 0-6.229333-5.12-6.229333h-80.810666c-7.68 0-8.533333 4.266667-7.253334 9.088 1.536 6.229333 3.541333 12.373333 5.376 18.474667 2.816 9.429333 6.570667 18.773333 5.930667 28.8-0.64 10.069333-1.792 18.858667-2.688 28.288-0.597333 5.973333-1.152 12.032-1.792 18.005333a2440.533333 2440.533333 0 0 1-6.485333 55.04c-1.024 7.808-2.261333 15.872-3.242667 23.808-0.981333 7.936-1.834667 16.469333-2.901333 24.746667-1.322667 10.24-2.858667 20.352-4.266667 30.549333-1.28 9.088-2.602667 18.133333-3.84 27.221333l-5.12 38.698667-1.578667 13.696-1.536 0.298667a29.013333 29.013333 0 0 1-3.968-6.784c-9.386667-34.389333-18.56-68.778667-27.861333-103.210667a75052.8 75052.8 0 0 0-49.237333-181.504c-4.992-18.133333-9.941333-36.266667-15.146667-54.357333a12.288 12.288 0 0 0-16.213333-8.106667 134.954667 134.954667 0 0 0-6.954667 2.56l-55.125333 21.674667-51.882667 20.565333c-15.36 6.058667-31.061333 11.690667-46.208 18.346667a145.493333 145.493333 0 0 0-53.248 39.466666c-8.277333 8.832-13.226667 20.309333-13.994667 32.426667 0 5.888-1.194667 11.690667-1.792 17.578667-1.450667 14.250667-2.944 28.501333-4.266666 42.666666-0.981333 9.6-1.706667 19.2-2.816 28.714667-1.28 11.349333-3.157333 22.656-4.266667 34.133333-0.981333 9.685333-1.194667 19.498667-1.92 29.269334a64.512 64.512 0 0 1-1.706667 11.946666c-3.114667 10.24-3.413333 21.034667-0.938666 31.402667 5.205333 18.517333 15.786667 28.330667 33.834666 28.330667 261.077333 0.170667 522.112 0.170667 783.189334 0a38.826667 38.826667 0 0 0 27.221333-14.890667 28.330667 28.330667 0 0 0 7.424-20.138667c-0.938667-13.738667-3.029333-27.392-4.266667-41.088zM330.73981 351.829333c3.968 20.693333 10.666667 40.789333 19.84 59.733334 5.504 11.178667 12.245333 21.802667 18.346666 32.682666a196.266667 196.266667 0 0 0 51.84 59.733334 169.770667 169.770667 0 0 0 68.992 33.578666c11.221333 2.346667 22.613333 3.882667 34.133334 4.608a132.266667 132.266667 0 0 0 40.277333-5.76 177.066667 177.066667 0 0 0 76.8-42.666666c9.258667-8.704 17.92-17.962667 25.856-27.818667a244.224 244.224 0 0 0 39.978667-71.466667c7.082667-18.730667 11.690667-38.314667 13.696-58.24 1.28-13.013333 2.858667-25.984 4.266666-40.021333-1.408-9.173333-2.645333-19.285333-4.565333-29.226667-2.346667-12.202667-4.693333-24.405333-8.021333-36.309333a191.957333 191.957333 0 0 0-23.893334-50.773333 205.781333 205.781333 0 0 0-47.018666-53.418667 170.666667 170.666667 0 0 0-67.029334-33.28c-14.506667-3.242667-29.226667-5.717333-43.989333-7.466667-11.946667-1.450667-23.68 1.365333-35.456 3.242667a142.378667 142.378667 0 0 0-46.250667 13.696c-13.056 6.656-25.6 14.293333-37.461333 22.869333a218.709333 218.709333 0 0 0-30.805333 29.141334c-7.936 9.472-15.104 19.626667-21.333334 30.250666a160.554667 160.554667 0 0 0-21.333333 48.170667c-2.688 11.392-4.821333 22.869333-7.125333 34.133333a249.002667 249.002667 0 0 0-5.12 27.733334 125.44 125.44 0 0 0 1.536 22.485333c0.64 11.52 1.92 23.04 3.84 34.389333z" fill="#2c2c2c" p-id="1724"></path><path d="M852.72381 861.866667m-42.666667 0a42.666667 42.666667 0 1 0 85.333333 0 42.666667 42.666667 0 1 0-85.333333 0Z" fill="#2c2c2c" p-id="1725"></path></svg>